# xmcd
#
# Track frame offsets: 
#        150
#        18939
#        38642
#        58788
#        75505
#        88872
#        102315
#        120199
#        136681
#        151817
#        166684
#        184958
#        204191
#        219021
#        237852
#
# Disc length: 3435 seconds
#
# Revision: 0
# Processed by: cddbd v1.4PL0 Copyright (c) Steve Scherf et al.
# Submitted via: ExactAudioCopy v0.95a4
#
DISCID=a90d690f
DTITLE=Various Artist - Country Roads - The Line Dance Album
DYEAR=1900
DGENRE=Country
TTITLE0=Don Fardon - Achy Break Heart
TTITLE1=George Moody and The County Squires - Good Hearted Woman
TTITLE2=Don Fardon - Folsom Prison Blues
TTITLE3=Driver Brothers - Line Up And Dance
TTITLE4=Dockery Boys - I Don't Care If You Love Me Anymore
TTITLE5=George Moody and The County Squires - Hot, Country And Single
TTITLE6=Dockery Boys - Oh Lousiana
TTITLE7=Simon J. Charles Band - Southern Stomp
TTITLE8=Don Fardon - Let's Work Together
TTITLE9=George Moody and The County Squires - Tennessee Waltz
TTITLE10=George Moody and The County Squires - Dream You
TTITLE11=Dockery Boys - Zydecajun Cowboy
TTITLE12=Ray Merrell - Queen Of The Line
TTITLE13=Don Fardon - Bad Moon Rising
TTITLE14=George Moody and The County Squires - Okie From Muskogee
EXTD=
EXTT0=
EXTT1=
EXTT2=
EXTT3=
EXTT4=
EXTT5=
EXTT6=
EXTT7=
EXTT8=
EXTT9=
EXTT10=
EXTT11=
EXTT12=
EXTT13=
EXTT14=
PLAYORDER=
